<?xml version="1.0" encoding="UTF-8" standalone="no"?>
<!-- Created with Inkscape (http://www.inkscape.org/) -->

<svg
   width="256"
   height="256"
   viewBox="0 0 67.733335 67.733334"
   version="1.1"
   id="svg1"
   inkscape:version="1.4 (e7c3feb100, 2024-10-09)"
   sodipodi:docname="pwgui_icon.svg"
   inkscape:export-filename="icon.png"
   inkscape:export-xdpi="96"
   inkscape:export-ydpi="96"
   xml:space="preserve"
   xmlns:inkscape="http://www.inkscape.org/namespaces/inkscape"
   xmlns:sodipodi="http://sodipodi.sourceforge.net/DTD/sodipodi-0.dtd"
   xmlns="http://www.w3.org/2000/svg"
   xmlns:svg="http://www.w3.org/2000/svg"><sodipodi:namedview
     id="namedview1"
     pagecolor="#ffffff"
     bordercolor="#000000"
     borderopacity="0.25"
     inkscape:showpageshadow="2"
     inkscape:pageopacity="0.0"
     inkscape:pagecheckerboard="0"
     inkscape:deskcolor="#d1d1d1"
     inkscape:document-units="px"
     inkscape:zoom="2.0560856"
     inkscape:cx="125.96752"
     inkscape:cy="89.490438"
     inkscape:window-width="1920"
     inkscape:window-height="1002"
     inkscape:window-x="0"
     inkscape:window-y="0"
     inkscape:window-maximized="1"
     inkscape:current-layer="layer1" /><defs
     id="defs1"><inkscape:path-effect
       effect="fillet_chamfer"
       id="path-effect1"
       is_visible="true"
       lpeversion="1"
       nodesatellites_param="F,0,0,1,0,2.1166666,0,1 @ F,0,0,1,0,2.1166666,0,1 @ F,0,0,1,0,2.1166666,0,1 @ F,0,0,1,0,2.1166666,0,1 @ F,0,0,1,0,2.1166666,0,1 @ F,0,0,1,0,2.1166666,0,1 @ F,0,0,1,0,2.1166666,0,1"
       radius="8"
       unit="px"
       method="auto"
       mode="F"
       chamfer_steps="1"
       flexible="false"
       use_knot_distance="true"
       apply_no_radius="true"
       apply_with_radius="true"
       only_selected="false"
       hide_knots="false" /><filter
       id="mask-powermask-path-effect2_inverse"
       inkscape:label="filtermask-powermask-path-effect2"
       style="color-interpolation-filters:sRGB"
       height="100"
       width="100"
       x="-50"
       y="-50"><feColorMatrix
         id="mask-powermask-path-effect2_primitive1"
         values="1"
         type="saturate"
         result="fbSourceGraphic" /><feColorMatrix
         id="mask-powermask-path-effect2_primitive2"
         values="-1 0 0 0 1 0 -1 0 0 1 0 0 -1 0 1 0 0 0 1 0 "
         in="fbSourceGraphic" /></filter></defs><g
     inkscape:label="Layer 1"
     inkscape:groupmode="layer"
     id="layer1"
     transform="translate(-21.037132,-63.219304)"
     style="display:inline"><path
       style="display:inline;fill:#ffffff;fill-opacity:1;stroke:none;stroke-width:3.70417;stroke-linecap:round;stroke-miterlimit:8"
       d="M 42.147114,85.040618 45.545595,102.30503 68.00563,93.606634 61.186241,88.827229 Z"
       id="path6"
       inkscape:label="background_fill" /><path
       id="path16"
       mask="none"
       style="font-weight:900;font-size:26.4583px;line-height:1.3;font-family:'FOT-Yuruka Std';-inkscape-font-specification:'FOT-Yuruka Std Heavy';text-align:center;letter-spacing:-0.529167px;text-anchor:middle;fill:#ffffff;fill-opacity:1;stroke-width:0.46719;stroke-miterlimit:8"
       inkscape:label="W"
       d="m 71.470703,68.523438 c -2.202026,0.324886 -3.947672,2.07017 -4.775391,4.068359 -1.775565,-0.08848 -3.541838,0.154228 -5.300781,0.361328 -1.210361,-2.676379 -4.466656,-4.36453 -7.31348,-3.376805 -2.253117,0.59388 -4.400462,1.329989 -6.397358,2.546167 -2.090226,1.586168 -2.864571,4.62665 -1.764478,7.014225 0.964778,2.73089 2.488982,5.345644 3.548513,8.085379 1.599001,3.53223 3.056236,7.116068 5.077194,10.342362 1.917775,1.860511 4.807585,2.00953 7.314789,1.678323 1.240115,-0.01291 2.466195,-0.322933 3.587555,-0.846292 2.747495,0.80694 5.600957,0.53315 8.311726,-0.22305 2.159026,-0.917047 3.556793,-2.98275 4.422373,-5.0231 1.489794,-3.550905 2.588073,-7.213351 3.312749,-10.979618 0.430988,-2.323987 0.918731,-4.652358 1.136745,-7.0047 -0.04117,-2.577848 -1.867462,-5.054272 -4.419096,-5.638293 -2.104885,-0.686347 -4.338405,-0.916098 -6.535742,-1.025115 -0.06844,0.0069 -0.136878,0.01389 -0.205318,0.02083 z" /><path
       id="text1"
       style="font-weight:900;font-size:26.4583px;line-height:1.3;font-family:'FOT-Yuruka Std';-inkscape-font-specification:'FOT-Yuruka Std Heavy';text-align:center;letter-spacing:-0.529167px;text-anchor:middle;fill:#ffffff;fill-opacity:1;stroke-width:0.505772;stroke-miterlimit:8"
       inkscape:label="P"
       d="m 41.166016,68.478516 c -3.56113,0.177011 -6.646712,2.29844 -10.142323,2.811077 -2.464305,0.675422 -4.637237,2.983452 -4.406034,5.659232 0.05344,2.974822 1.282582,5.755672 1.715992,8.673896 1.099357,4.700013 1.941118,9.390874 3.487832,13.9576 1.648219,2.534609 5.191015,3.272399 7.901545,2.163589 1.508681,-0.3107 2.935438,-0.57053 4.290644,-1.13258 1.778004,-0.682874 3.315675,-2.211819 3.531834,-4.168273 0.146413,-0.765809 0.146066,-1.54903 0.153713,-2.325869 2.549059,-1.061494 4.81715,-2.965054 6.279297,-5.236329 1.354722,-2.039573 2.127263,-4.634668 2,-7.146484 C 55.848313,75.501285 50.939682,69.603932 44.700681,68.716878 43.5368,68.503199 42.347562,68.44207 41.166016,68.478516 Z" /><g
       id="g2"
       inkscape:label="GUI"
       transform="matrix(0.84791769,0,0,0.84791769,-30.088783,-4.9684748)"
       style="fill:#995ce5;fill-opacity:1"><path
         id="path22"
         style="-inkscape-font-specification:'FOT-Yuruka Std Heavy';fill:#ffffff;fill-opacity:1;stroke-width:0.50351;stroke-miterlimit:8"
         d="m 124.79297,120.20898 c -2.97278,0.1247 -6.21701,-0.26011 -8.86524,1.38868 -2.50326,1.76254 -3.27863,5.10232 -2.88421,7.99833 0.32459,6.45193 0.066,12.93805 0.79608,19.36586 0.93011,3.04173 4.25426,4.92006 7.34188,4.76581 2.87963,-0.27453 6.05701,0.20223 8.61448,-1.45773 2.45936,-1.68091 3.22281,-4.93888 2.90392,-7.75697 -0.38024,-6.51706 -0.007,-13.08059 -0.86044,-19.56641 -0.44867,-2.00963 -2.19,-3.53868 -4.04773,-4.28557 -0.94673,-0.37883 -1.9824,-0.53474 -2.99874,-0.452 z" /><path
         id="path21"
         style="-inkscape-font-specification:'FOT-Yuruka Std Heavy';fill:#ffffff;fill-opacity:1;stroke-width:0.50351;stroke-miterlimit:8"
         d="m 95.183594,118.23828 c -3.818732,0.48663 -6.594574,4.53206 -5.983453,8.27578 -0.01514,3.97545 -0.515987,7.9207 -0.19924,11.83614 0.153088,2.68852 0.913265,5.38694 2.568092,7.54812 2.845391,3.91231 7.666561,6.37886 12.431007,6.46301 3.15767,0.0884 6.54971,-0.69109 9.33544,-2.37486 3.13546,-1.81361 5.56674,-4.7973 6.6255,-8.26967 0.51335,-1.55138 0.84568,-3.36876 1.01208,-5.07185 0.37326,-3.4089 0.61795,-6.7916 0.68497,-10.22868 -0.0382,-2.1692 -0.73016,-4.49978 -2.58768,-5.80104 -1.94406,-1.4675 -4.46178,-1.78111 -6.7106,-1.78785 -2.28848,-0.25949 -4.73711,-0.1092 -6.75815,1.10035 -2.33873,-1.73318 -5.40947,-1.70255 -8.148807,-1.6816 -0.801351,-0.0125 -1.516507,-0.0408 -2.269159,-0.008 z" /><path
         id="text19"
         style="-inkscape-font-specification:'FOT-Yuruka Std Heavy';fill:#ffffff;fill-opacity:1;stroke-width:0.50351;stroke-miterlimit:8"
         d="m 81.748047,118.35742 c -6.077404,0.49495 -12.152804,3.73384 -15.147333,9.17876 -3.979664,7.4107 -1.531931,17.65976 5.554605,22.28096 3.26729,2.24777 7.396935,3.16445 11.25684,2.83468 5.465377,-0.39447 10.802979,-3.4818 13.399134,-8.3835 1.010975,-1.84681 1.626017,-3.93156 1.831285,-5.96949 0.247247,-2.57817 -0.157371,-5.32205 -1.417969,-7.67188 -0.930808,-1.66317 -2.436334,-2.95996 -4.167968,-3.73633 0.281809,-3.20752 -1.567336,-6.66039 -4.714844,-7.69335 -2.131169,-0.8117 -4.421101,-0.89152 -6.59375,-0.83985 z" /></g></g><g
     inkscape:label="Layer 1"
     inkscape:groupmode="layer"
     id="g6"
     transform="translate(-21.037132,-63.219304)"
     style="display:inline"><path
       style="font-weight:900;font-size:26.4583px;line-height:1.3;font-family:'FOT-Yuruka Std';-inkscape-font-specification:'FOT-Yuruka Std Heavy';text-align:center;letter-spacing:-0.529167px;text-anchor:middle;fill:#995ce5;fill-opacity:1;stroke-width:0.46719;stroke-miterlimit:8"
       d="m 71.368832,93.413873 c 0.303656,-4.16e-4 0.6071,-0.187661 0.723723,-0.327983 3.265365,-3.858509 5.303182,-17.666632 5.303132,-17.713353 -4.58e-4,-0.373753 -0.164437,-0.700571 -0.585013,-0.793467 l -4.159028,-0.812224 c -0.09347,-0.02324 -0.186923,-0.02311 -0.280347,-0.02303 -0.280313,3.62e-4 -0.443672,0.117373 -0.536723,0.421163 -0.255817,0.887991 -1.903516,9.276178 -2.43901,10.655095 -0.09306,0.280432 -0.186372,0.39736 -0.279813,0.39747 -0.09344,2.97e-4 -0.187025,-0.116554 -0.23405,-0.350079 L 67.168171,78.42242 c -0.117207,-0.326884 -0.444605,-0.583414 -0.911783,-0.582812 l -0.07004,1.31e-4 -3.036486,0.19079 c -0.724079,0.04765 -1.027346,0.375074 -1.050265,0.702137 -0.458545,6.681434 -0.622041,6.728358 -0.902354,6.728722 -0.09344,2.89e-4 -0.187008,-0.09317 -0.257292,-0.256622 l -4.474903,-10.24905 c -0.07038,-0.163421 -0.304182,-0.396719 -0.677944,-0.396238 -0.09344,1.12e-4 -0.186847,0.02361 -0.280262,0.04708 l -4.482985,1.570864 c -0.233505,0.07039 -0.349937,0.350843 -0.349573,0.631155 2.9e-4,0.09345 0.02396,0.210169 0.07055,0.303581 l 7.402918,16.552381 c 0.09375,0.210097 0.421026,0.419914 0.818122,0.419414 l 0.07021,6.7e-4 3.433583,-0.191299 c 0.654075,-7.46e-4 1.167668,-0.235111 2.771869,-6.147124 l 1.875772,5.440351 c 0.07029,0.210139 0.420999,0.419922 0.818113,0.419414 l 0.07021,6.69e-4 z"
       id="path1"
       mask="none"
       inkscape:label="W" /><path
       style="font-weight:900;font-size:26.4583px;line-height:1.3;font-family:'FOT-Yuruka Std';-inkscape-font-specification:'FOT-Yuruka Std Heavy';text-align:center;letter-spacing:-0.529167px;text-anchor:middle;fill:#9b5ce5;fill-opacity:1;stroke-width:0.505772;stroke-miterlimit:8"
       d="m 42.085587,95.798344 c 0.243527,-0.06817 0.401358,-0.348672 0.350735,-0.623372 l -1.167383,-5.10917 c 1.000378,0.0086 2.039735,-0.124466 3.062548,-0.410748 5.065361,-1.417719 7.254538,-5.418033 5.99358,-9.923283 -1.315486,-4.700092 -6.316177,-6.898146 -10.821425,-5.637186 -0.949757,0.265824 -1.876152,0.708928 -2.761652,1.298163 l -4.517887,1.028153 -0.04871,0.01367 c -0.267881,0.07493 -0.42571,0.355497 -0.35755,0.599023 l 4.392986,19.542457 c 0.08179,0.292237 0.337958,0.456877 0.637005,0.399437 l 5.189043,-1.163464 z m -3.09298,-15.835931 c 0.362377,-0.206468 0.738389,-0.36423 1.079327,-0.459655 1.8021,-0.504389 3.499835,0.307208 3.976954,2.011896 0.04771,0.170465 0.777022,2.77621 -1.901774,3.525964 -0.657523,0.18404 -1.38711,0.204407 -1.99103,0.11084 z"
       id="path2"
       inkscape:label="P" /><g
       id="g5"
       inkscape:label="GUI"
       transform="matrix(0.84791769,0,0,0.84791769,-30.088783,-4.9684748)"
       style="fill:#995ce5;fill-opacity:1"><path
         style="-inkscape-font-specification:'FOT-Yuruka Std Heavy';fill:#995ce5;fill-opacity:1;stroke-width:0.50351;stroke-miterlimit:8"
         d="m 125.88608,147.29799 c 0.3272,-0.008 0.59768,-0.29075 0.59016,-0.61795 l -0.45201,-19.65684 c -0.008,-0.3272 -0.29074,-0.59769 -0.61794,-0.59017 l -5.5623,0.12791 c -0.3272,0.008 -0.59768,0.29075 -0.59016,0.61794 l 0.452,19.65685 c 0.008,0.3272 0.29075,0.59768 0.61794,0.59016 z"
         id="path3" /><path
         style="-inkscape-font-specification:'FOT-Yuruka Std Heavy';fill:#995ce5;fill-opacity:1;stroke-width:0.50351;stroke-miterlimit:8"
         d="m 109.88413,124.90098 c -0.25086,-0.0212 -0.71306,0.0655 -0.758,0.59228 l -0.005,0.05 c -0.0944,2.29124 -0.23307,4.8061 -0.42563,7.06369 -0.14757,1.73083 -0.30966,3.33408 -0.5106,4.50449 -0.35743,2.11721 -2.13011,3.05247 -3.78567,2.91125 -1.60541,-0.13697 -3.07506,-1.27296 -3.0021,-3.31337 0.11209,-2.79504 -0.0151,0.1756 0.37366,-11.48982 5.5e-4,-0.30315 -0.22885,-0.5754 -0.52987,-0.60108 l -0.05,-0.005 -5.113519,-0.1835 c -0.303153,-5.5e-4 -0.575392,0.22886 -0.603206,0.55494 l -0.0042,0.0501 -0.382793,11.89331 c -0.17612,5.6195 4.055693,8.73455 8.646128,9.1261 4.71588,0.40225 9.80537,-2.09459 10.75113,-7.85056 0.24953,-1.44419 0.42233,-3.17287 0.56778,-4.87863 0.24178,-2.83452 0.38321,-5.67761 0.42409,-7.34176 0.003,-0.32822 -0.24966,-0.62769 -0.57575,-0.65551 z"
         id="path4" /><path
         style="-inkscape-font-specification:'FOT-Yuruka Std Heavy';fill:#995ce5;fill-opacity:1;stroke-width:0.50351;stroke-miterlimit:8"
         d="m 85.95788,137.58105 c 0.251117,-0.0179 0.360517,0.1005 0.37663,0.3265 0.05013,0.70314 -1.05503,2.54868 -3.541092,2.72591 -2.360504,0.16829 -4.778151,-1.52707 -5.007306,-4.74137 -0.177236,-2.48606 0.954967,-5.36835 4.997956,-5.65658 1.054694,-0.0752 2.050163,0.081 2.674328,0.33936 0.07891,0.0448 0.181154,0.0628 0.256489,0.0575 0.301342,-0.0215 0.536346,-0.2654 0.570458,-0.49498 l 0.553034,-4.27963 -0.0071,-0.10046 c -0.02149,-0.30134 -0.216958,-0.56503 -0.450125,-0.64936 -1.219638,-0.46832 -2.695812,-0.64073 -4.227628,-0.53151 -3.465419,0.24705 -11.840448,2.78756 -11.201322,11.75246 0.488742,6.85549 6.17958,10.56379 11.779497,10.16457 5.223241,-0.37238 10.142042,-4.30704 9.712377,-10.33386 -0.179027,-2.51117 -0.971669,-3.71662 -2.955495,-3.57519 -0.301341,0.0215 -3.831355,0.42457 -6.557793,0.77038 -0.450217,0.0574 -0.75161,0.43217 -0.724755,0.80886 l 0.0036,0.0502 0.263268,2.98472 c 0.02685,0.37669 0.281505,0.76235 0.758628,0.72834 l 0.05023,-0.004 c 0.60089,-0.0681 2.299539,-0.31538 2.60088,-0.33685 z"
         id="path5" /></g></g></svg>
